<?xml version="1.0" encoding="iso-8859-1"?>
<!-- Generator: Adobe Illustrator 19.0.0, SVG Export Plug-In . SVG Version: 6.00 Build 0)  -->
<svg version="1.1" id="Layer_1" xmlns="http://www.w3.org/2000/svg" xmlns:xlink="http://www.w3.org/1999/xlink" x="0px" y="0px"
	 viewBox="0 0 512 512" style="enable-background:new 0 0 512 512;" xml:space="preserve">
<circle style="fill:#D7F3FF;" cx="256.003" cy="256.004" r="249.99"/>
<g>
	<path style="fill:#F2F2F2;" d="M278.131,103.958v16.896h-36.594v-16.896c0-10.114,8.189-18.303,18.291-18.303
		c5.051,0,9.633,2.044,12.94,5.363C276.087,94.325,278.131,98.907,278.131,103.958z"/>
	<path style="fill:#F2F2F2;" d="M241.537,120.854h36.594c0,10.102-8.189,18.303-18.303,18.303c-5.051,0-9.621-2.056-12.94-5.363
		C243.582,130.487,241.537,125.905,241.537,120.854z"/>
	<path style="fill:#F2F2F2;" d="M236.186,149.848c0,0,10.438,19.566,42.487,18.002c-6.47,17.305-21.225,42.836-53.983,56.942
		l-2.634-0.265l3.427-34.55h-84.264l-21.394-22.741L236.186,149.848z"/>
</g>
<path style="fill:#E6E6E6;" d="M399.844,167.237l-21.406,22.741h-84.252c-15.561,61.523-78.432,97.997-78.432,97.997l6.301-63.448
	l2.634,0.265c32.758-14.106,47.514-39.637,53.983-56.942c3.932-10.522,4.81-18.002,4.81-18.002L399.844,167.237z"/>
<path style="fill:#F2F2F2;" d="M294.186,189.978l17.389,175.202H208.094l7.66-77.205
	C215.754,287.975,278.625,251.501,294.186,189.978z"/>
<polygon style="fill:#E6E6E6;" points="320.69,365.18 320.69,406.645 198.978,406.645 198.978,365.18 208.094,365.18 
	311.575,365.18 "/>
<path style="fill:#F2F2F2;" d="M332.969,406.645v87.27c-24.244,7.841-50.111,12.074-76.964,12.074
	c-24.039,0-47.297-3.391-69.304-9.741v-89.603h12.278H320.69H332.969z"/>
<g>
	<path style="fill:#FFFFFF;" d="M453.226,299.616c6.614,0,11.966,5.363,11.966,11.966c0,6.614-5.351,11.966-11.966,11.966
		c-4.041,0-71.048,0-75.485,0c-6.602,0-11.966-5.351-11.966-11.966c0-6.602,5.363-11.966,11.966-11.966
		c0.673,0,1.311,0.072,1.948,0.168c0-0.228-0.036-0.469-0.036-0.71c0-13.505,10.955-24.46,24.472-24.46
		c9.825,0,18.267,5.796,22.163,14.142c1.515-0.421,3.115-0.661,4.762-0.661c8.045,0,14.84,5.363,17.004,12.711
		C449.618,300.049,451.374,299.616,453.226,299.616z"/>
	<path style="fill:#FFFFFF;" d="M135.747,256.54c6.614,0,11.966,5.351,11.966,11.966c0,6.602-5.351,11.966-11.966,11.966
		c-4.437,0-71.445,0-75.485,0c-6.602,0-11.966-5.363-11.966-11.966c0-6.614,5.363-11.966,11.966-11.966
		c1.864,0,3.608,0.433,5.183,1.191c2.165-7.348,8.947-12.723,16.992-12.723c1.66,0,3.247,0.253,4.762,0.673
		c3.896-8.346,12.35-14.154,22.175-14.154c13.505,0,24.46,10.955,24.46,24.472c0,0.241-0.024,0.469-0.036,0.71
		C134.436,256.6,135.086,256.54,135.747,256.54z"/>
</g>
<g>
	<path style="fill:#333333;" d="M256.001,0.001C114.842,0.001,0,114.841,0,256s114.842,255.999,256.001,255.999S512,397.158,512,256
		C512,114.841,397.159,0.001,256.001,0.001z M192.713,491.633v-78.975h134.243v76.782c-22.463,6.841-46.285,10.536-70.955,10.536
		C234.117,499.975,212.905,497.062,192.713,491.633z M229.94,185.942c-1.14-1.258-2.759-1.977-4.457-1.977h-81.665l-11.741-12.479
		l101.315-15.14c4.495,5.633,15.421,15.876,36.253,17.413c-6.89,14.474-19.118,31.131-40.714,42.371l2.536-25.558
		C231.634,188.882,231.08,187.201,229.94,185.942z M227.543,230.109c33.826-14.745,49.535-40.825,56.761-60.153
		c1.985-5.312,3.242-9.915,4.017-13.305l99.266,14.834l-11.748,12.48h-81.653c-1.698,0-3.317,0.718-4.457,1.977
		c-0.667,0.737-1.105,1.625-1.344,2.567l-0.031-0.008c-10.999,43.489-47.364,74.378-65.356,87.396L227.543,230.109z
		 M221.445,291.543c10.563-6.659,48.951-32.946,69.338-74.967l14.153,142.592h-90.204L221.445,291.543z M204.991,371.197h109.683
		v29.435H204.991V371.197z M338.982,485.436v-78.79c0-3.32-2.691-6.013-6.013-6.013H326.7v-35.448c0-3.32-2.691-6.013-6.013-6.013
		h-3.667l-16.196-163.18h77.613c1.658,0,3.242-0.684,4.379-1.892l19.186-20.381l27.574,4.796c0.342,0.059,0.685,0.089,1.029,0.089
		c0.728,0,1.454-0.132,2.141-0.394l14.044-5.35c3.103-1.182,4.66-4.656,3.479-7.759c-1.183-3.104-4.658-4.66-7.76-3.479l-12.5,4.761
		l-29.136-5.066c-0.014-0.002-0.028,0-0.042-0.002c-0.034-0.006-0.065-0.017-0.099-0.022l-116.362-17.389
		c-1.602-0.237-3.239,0.185-4.532,1.17c-1.292,0.982-2.131,2.453-2.328,4.063c-0.007,0.06-0.655,5.213-3.133,12.788
		c-24.376-0.262-32.563-14.327-32.889-14.906c-1.198-2.245-3.673-3.489-6.193-3.117L118.933,161.29
		c-0.032,0.005-0.064,0.016-0.096,0.022c-0.016,0.002-0.031,0-0.047,0.004l-29.136,5.066l-12.5-4.761
		c-3.104-1.181-6.577,0.375-7.76,3.479c-1.181,3.103,0.376,6.577,3.479,7.759l14.044,5.35c0.687,0.261,1.412,0.394,2.141,0.394
		c0.344,0,0.688-0.029,1.029-0.089l27.575-4.796l19.174,20.381c1.135,1.207,2.721,1.893,4.38,1.893h77.626l-16.196,163.18h-3.67
		c-3.321,0-6.013,2.693-6.013,6.013v35.448h-6.265c-3.321,0-6.013,2.693-6.013,6.013v81.418
		C82.905,456.252,12.026,364.255,12.026,256c0-134.528,109.447-243.974,243.975-243.974S499.974,121.472,499.974,256
		C499.974,361.406,432.781,451.406,338.982,485.436z"/>
	<path style="fill:#333333;" d="M259.832,79.642c-13.406,0-24.315,10.907-24.315,24.314v16.896
		c0,13.406,10.907,24.314,24.315,24.314s24.314-10.907,24.314-24.314v-16.896C284.146,90.549,273.239,79.642,259.832,79.642z
		 M259.832,91.668c6.775,0,12.288,5.513,12.288,12.288v10.883h-24.577v-10.883C247.544,97.18,253.057,91.668,259.832,91.668z
		 M259.832,133.139c-4.591,0-8.596-2.535-10.705-6.275h21.411C268.428,130.604,264.423,133.139,259.832,133.139z"/>
	<path style="fill:#333333;" d="M453.226,293.603c-0.599,0-1.192,0.029-1.781,0.088c-4.486-7.492-12.995-12.193-22.011-11.554
		c-5.604-8.348-15.103-13.54-25.309-13.54c-15.072,0-27.624,10.995-30.057,25.385c-8.155,1.703-14.301,8.947-14.301,17.601
		c0,9.914,8.066,17.98,17.978,17.98h75.48c9.913,0,17.978-8.066,17.978-17.98S463.138,293.603,453.226,293.603z M453.226,317.537
		h-75.48c-3.282,0-5.953-2.671-5.953-5.954s2.671-5.954,5.953-5.954c0.273,0,0.59,0.03,0.973,0.093
		c1.776,0.292,3.582-0.226,4.933-1.409c1.352-1.182,2.103-2.907,2.05-4.702c-0.006-0.185-0.018-0.369-0.034-0.532
		c0-10.177,8.281-18.457,18.458-18.457c7.128,0,13.688,4.192,16.713,10.679c1.243,2.665,4.234,4.039,7.064,3.251
		c6.38-1.779,12.632,2.022,14.38,7.954c0.498,1.692,1.715,3.081,3.328,3.797c1.611,0.716,3.457,0.688,5.047-0.077
		c0.821-0.394,1.684-0.595,2.569-0.595c3.282,0,5.953,2.671,5.953,5.954S456.507,317.537,453.226,317.537z"/>
	<path style="fill:#333333;" d="M62.049,250.612c-0.589-0.059-1.182-0.088-1.781-0.088c-9.913,0-17.978,8.066-17.978,17.98
		c0,9.914,8.066,17.98,17.978,17.98h75.48c9.913,0,17.978-8.066,17.978-17.98c0-8.654-6.145-15.899-14.301-17.601
		c-2.433-14.39-14.985-25.385-30.056-25.385c-10.206,0-19.707,5.191-25.31,13.54C75.032,238.42,66.535,243.12,62.049,250.612z
		 M71.21,259.427c1.749-5.933,8.001-9.731,14.38-7.954c2.833,0.789,5.82-0.586,7.064-3.251c3.027-6.487,9.588-10.679,16.715-10.679
		c10.177,0,18.457,8.28,18.453,18.435c-0.013,0.184-0.025,0.368-0.03,0.553c-0.053,1.795,0.699,3.52,2.05,4.702
		c1.35,1.182,3.158,1.703,4.933,1.409c0.381-0.063,0.7-0.093,0.973-0.093c3.282,0,5.953,2.671,5.953,5.954s-2.671,5.954-5.953,5.954
		H60.267c-3.282,0-5.953-2.671-5.953-5.954s2.671-5.954,5.953-5.954c0.884,0,1.747,0.201,2.569,0.595
		c1.591,0.766,3.436,0.794,5.047,0.077C69.495,262.507,70.712,261.119,71.21,259.427z"/>
</g>
<g>
</g>
<g>
</g>
<g>
</g>
<g>
</g>
<g>
</g>
<g>
</g>
<g>
</g>
<g>
</g>
<g>
</g>
<g>
</g>
<g>
</g>
<g>
</g>
<g>
</g>
<g>
</g>
<g>
</g>
</svg>
